# xmcd
#
# Track frame offsets: 
#        187
#        19300
#        27292
#        35807
#        40277
#        48275
#        110835
#        169645
#
# Disc length: 3630 seconds
#
# Revision: 1
# Processed by: cddbd v1.5.2PL0 Copyright (c) Steve Scherf et al.
# Submitted via: ExactAudioCopyFreeDBPlugin 1.0
#
DISCID=680e2c08
DTITLE=Charles Mingus - Mingus At Monterey
DYEAR=1964
DGENRE=Jazz
TTITLE0=I've Got It Bad
TTITLE1=In A Sentimental Mood
TTITLE2=All Too Soon
TTITLE3=Mood Indigo
TTITLE4=Sophisticated Lady
TTITLE5=A Train
TTITLE6=Orange Was The Color Of Her Dress, Then Blue Silk
TTITLE7=Meditations On Integration
EXTD=YEAR: 1964
EXTT0=
EXTT1=
EXTT2=
EXTT3=
EXTT4=
EXTT5=
EXTT6=
EXTT7=
PLAYORDER=
